<svg xmlns="http://www.w3.org/2000/svg" viewBox="0 0 1901 1901"><defs><style>.cls-1{fill:#e05858;}</style></defs><g id="Capa_2" data-name="Capa 2"><path class="cls-1" d="M1004.75,49.75H207A152.79,152.79,0,0,0,54.25,202.54v797.71c0,525,425.55,950.5,950.5,950.5h0c525,0,950.5-425.55,950.5-950.5h0C1955.25,475.3,1529.7,49.75,1004.75,49.75Zm7.86,1620.83c-296,0-539.95-222.72-573.45-509.71a60.57,60.57,0,0,1,60.12-67.66H1525.93a60.57,60.57,0,0,1,60.12,67.66C1552.55,1447.86,1308.59,1670.58,1012.61,1670.58Z" transform="translate(-54.25 -49.75)"/></g></svg>